<?xml version="1.0" encoding="UTF-8" standalone="no"?>
<svg
   xmlns:dc="http://purl.org/dc/elements/1.1/"
   xmlns:cc="http://creativecommons.org/ns#"
   xmlns:rdf="http://www.w3.org/1999/02/22-rdf-syntax-ns#"
   xmlns:svg="http://www.w3.org/2000/svg"
   xmlns="http://www.w3.org/2000/svg"
   xmlns:sodipodi="http://sodipodi.sourceforge.net/DTD/sodipodi-0.dtd"
   xmlns:inkscape="http://www.inkscape.org/namespaces/inkscape"
   width="1389.8546"
   height="779.49927"
   viewBox="0 0 1389.8546 779.49927"
   version="1.1"
   xml:space="preserve"
   style="clip-rule:evenodd;fill-rule:evenodd;stroke-linecap:round;stroke-linejoin:round;stroke-miterlimit:1.5"
   id="svg57"
   sodipodi:docname="FlyingDuckLodge.svg"
   inkscape:version="1.0.2-2 (e86c870879, 2021-01-15)"><metadata
   id="metadata63"><rdf:RDF><cc:Work
       rdf:about=""><dc:format>image/svg+xml</dc:format><dc:type
         rdf:resource="http://purl.org/dc/dcmitype/StillImage" /><dc:title></dc:title></cc:Work></rdf:RDF></metadata><defs
   id="defs61">
            
        
        
        
        
        
        
        
        
        
    </defs><sodipodi:namedview
   pagecolor="#ffffff"
   bordercolor="#666666"
   borderopacity="1"
   objecttolerance="10"
   gridtolerance="10"
   guidetolerance="10"
   inkscape:pageopacity="0"
   inkscape:pageshadow="2"
   inkscape:window-width="2433"
   inkscape:window-height="1368"
   id="namedview59"
   showgrid="false"
   inkscape:zoom="0.54367026"
   inkscape:cx="471.24554"
   inkscape:cy="402.9961"
   inkscape:window-x="-7"
   inkscape:window-y="0"
   inkscape:window-maximized="0"
   inkscape:current-layer="layer2"
   fit-margin-top="0"
   fit-margin-left="0"
   fit-margin-right="0"
   fit-margin-bottom="0" />
    
    
<g
   inkscape:groupmode="layer"
   id="layer1"
   inkscape:label="Engrave"
   style="display:inline"><g
     id="g133"
     transform="translate(-342.66691,-32.503901)"
     style="clip-rule:evenodd;fill-rule:evenodd;stroke-linecap:round;stroke-linejoin:round;stroke-miterlimit:1.5"><g
       transform="matrix(1.2103831,0,0,1.0819358,1208.7977,22.134449)"
       id="g4"
       style="clip-rule:evenodd;fill-rule:evenodd;stroke-linecap:round;stroke-linejoin:round;stroke-miterlimit:1.5">
            <text
   x="80.766998"
   y="486.69299"
   style="font-size:100px;font-family:PMingLiU-ExtB, serif"
   id="text2">ODGE</text>
        </g><g
       transform="matrix(1.2103831,0,0,1.6895898,1146.0647,-241.41256)"
       id="g8"
       style="clip-rule:evenodd;fill-rule:evenodd;stroke-linecap:round;stroke-linejoin:round;stroke-miterlimit:1.5">
            <text
   x="80.766998"
   y="486.69299"
   style="font-size:100px;font-family:PMingLiU-ExtB, serif"
   id="text6">L</text>
        </g><g
       transform="matrix(1.2103831,0,0,1.0819358,879.8172,23.007899)"
       id="g12"
       style="clip-rule:evenodd;fill-rule:evenodd;stroke-linecap:round;stroke-linejoin:round;stroke-miterlimit:1.5">
            <text
   x="80.766998"
   y="486.69299"
   style="font-size:100px;font-family:PMingLiU-ExtB, serif"
   id="text10">UCK</text>
        </g><g
       transform="matrix(1.2103831,0,0,1.0819358,421.95511,22.134449)"
       id="g16"
       style="clip-rule:evenodd;fill-rule:evenodd;stroke-linecap:round;stroke-linejoin:round;stroke-miterlimit:1.5">
            <text
   x="80.766998"
   y="486.69299"
   style="font-size:100px;font-family:PMingLiU-ExtB, serif"
   id="text14">LYING</text>
        </g><g
       transform="matrix(2.7239022,0,0,2.7851606,406.07454,87.864654)"
       id="g25">
            <path
   d="m 341.749,171.914 c 0.065,-0.01 0.155,-0.023 0.262,-0.032 0.599,-0.054 1.693,-0.05 1.98,0.013 l 0.608,0.088 c 0.265,-0.034 0.559,-0.081 0.978,-0.161 l 0.566,0.278 c 4.038,0.044 4.487,0.159 4.941,0.157 l 1.112,-0.291 1.571,0.067 1.232,-0.01 0.232,0.238 1.226,-0.25 1.99,0.012 -0.009,-0.018 1.231,-0.091 0.675,0.114 0.218,-0.164 1.233,-0.009 c 2.468,0.02 2.468,0.02 3.371,0.135 0.445,-0.085 1.903,-0.099 2.242,-0.022 l 0.893,-0.208 c 1.677,0.068 2.465,0.098 3.363,0.093 l 1.402,-0.03 0.431,0.172 0.329,-0.172 0.321,0.035 1.308,-0.072 1.515,0.107 0.761,-0.07 1.084,-0.037 1.037,0.037 0.27,0.313 c 0.377,-0.173 0.651,-0.278 0.758,-0.278 l 2.06,0.069 1.519,0.104 c 0.274,-0.104 0.434,-0.138 0.652,-0.138 h 0.219 c 0.055,0.138 0.11,0.174 0.378,0.278 l 0.164,-0.176 0.542,-0.102 0.436,0.311 0.054,-0.277 0.376,-0.069 1.089,0.105 1.951,-0.14 2.716,-0.106 c 1.641,0.452 0.391,1.725 0.216,2.03 l -0.161,-0.137 -0.274,0.035 -2.116,0.306 -0.491,0.108 -0.813,-0.385 -0.374,0.208 c -0.109,0 -0.217,-0.035 -0.217,-0.035 l -1.088,0.069 -0.703,-0.034 -0.329,0.069 c -0.486,-0.243 -2.058,-0.208 -2.223,-0.171 l -0.591,-0.138 -0.757,0.103 -2.231,-0.015 -5.077,-0.074 -1.498,0.191 -3.061,0.115 -3.709,0.021 -0.986,-0.205 -1.564,-0.068 -1.235,0.01 -0.227,-0.238 -1.232,0.251 -1.994,-0.011 0.016,0.018 -1.235,0.09 -0.671,-0.113 -0.222,0.161 -1.235,0.011 c -2.467,-0.021 -2.467,-0.021 -3.363,-0.132 -0.45,0.084 -1.907,0.098 -2.247,0.019 l -1.554,0.057 c -1.68,-0.064 -1.806,0.05 -2.702,0.059 -1.01,0.008 -1.616,-0.262 -3.293,-0.129 l -1.746,-0.016 -1.645,-0.073 -0.003,-0.028 -0.068,0.002 -1.184,-0.338 c -0.467,-0.147 0.098,-0.32 -0.935,-0.517 -3.905,-0.756 -0.938,-0.817 -0.237,-0.965"
   style="fill-rule:nonzero"
   id="path23" />
        </g><g
       transform="matrix(2.7239022,0,0,2.7851606,442.64748,87.864654)"
       id="g29">
            <path
   d="m 247.876,174.336 c -0.052,0.018 -0.118,0.029 -0.198,0.042 -0.454,0.061 -1.285,0.061 -1.502,-0.018 l -0.462,-0.108 c -0.201,0.041 -0.424,0.102 -0.745,0.197 l -0.428,-0.333 c -3.066,-0.056 -3.41,-0.2 -3.75,-0.193 l -0.847,0.349 -1.192,-0.08 -0.936,0.013 -0.176,-0.29 -0.933,0.304 -1.51,-0.012 0.007,0.022 -0.933,0.108 -0.511,-0.138 -0.17,0.195 -0.938,0.013 c -1.872,-0.023 -1.872,-0.023 -2.554,-0.16 -0.338,0.106 -1.445,0.118 -1.705,0.025 l -0.676,0.251 c -1.278,-0.079 -1.875,-0.121 -2.555,-0.114 -0.769,0.011 -1.359,0.119 -2.637,0.282 l -0.342,-0.289 -2.177,-0.238 -0.027,0.215 -0.701,-0.166 h -1.03 l -0.289,-0.169 -0.492,0.041 -2.722,0.542 -0.331,-0.214 -0.244,0.214 -0.244,-0.044 -0.991,0.086 -1.157,-0.129 -0.575,0.087 -0.825,0.042 -0.782,-0.042 -0.205,-0.38 c -0.289,0.21 -0.496,0.336 -0.578,0.336 l -1.565,-0.083 -1.156,-0.128 c -0.205,0.128 -0.328,0.168 -0.49,0.168 h -0.166 c -0.041,-0.168 -0.086,-0.21 -0.291,-0.333 l -0.123,0.206 -0.413,0.127 -0.33,-0.376 -0.041,0.336 -0.285,0.083 -0.828,-0.126 -1.483,0.17 -2.056,-0.414 c -1.249,-0.545 -0.301,-2.085 -0.172,-2.452 l 0.127,0.165 0.205,-0.039 1.607,0.168 0.374,-0.129 0.618,0.469 0.286,-0.255 c 0.082,0 0.167,0.041 0.167,0.041 l 0.825,-0.084 0.531,0.043 0.248,-0.085 c 0.375,0.297 1.69,0 1.816,-0.039 l 0.372,0.165 0.246,-0.165 0.576,0.039 5.316,0.581 1.071,0.087 2.224,-0.087 0.618,0.044 c 0.168,0 0.246,-0.044 0.453,-0.168 l 0.578,0.168 2.1,-0.664 0.373,0.081 0.164,-0.126 -0.025,0.233 2.286,-0.031 c 0.512,-0.006 0.405,0.112 1.082,-0.092 l 0.793,0.163 c 3.067,0.059 3.407,0.2 3.744,0.194 l 0.848,-0.349 1.199,0.079 0.936,-0.013 0.17,0.289 0.932,-0.304 1.513,0.015 -0.008,-0.023 0.936,-0.109 0.513,0.14 0.165,-0.199 0.938,-0.012 c 1.874,0.022 1.874,0.022 2.557,0.162 0.338,-0.1 1.445,-0.12 1.702,-0.023 l 1.178,-0.071 c 1.282,0.078 1.373,-0.062 2.054,-0.072 0.766,-0.009 1.227,0.318 2.503,0.158 l 1.322,0.01 1.25,0.096 0.005,0.032 h 0.049 l 0.174,0.287 c -0.459,0.461 -0.992,-0.166 -0.459,0.461 0.532,0.629 0.707,0.988 0.18,1.167"
   style="fill-rule:nonzero"
   id="path27" />
        </g><g
       transform="matrix(2.7239022,0,0,2.7851606,394.27661,87.864654)"
       id="g33">
            <path
   d="m 262.395,172.114 c 0.048,-0.016 0.119,-0.03 0.199,-0.042 0.455,-0.064 1.285,-0.058 1.505,0.019 l 0.46,0.105 c 0.203,-0.041 0.423,-0.099 0.742,-0.195 l 0.429,0.335 c 3.066,0.054 3.408,0.194 3.752,0.192 l 0.845,-0.353 1.194,0.083 0.935,-0.014 0.177,0.287 0.929,-0.303 1.512,0.016 -0.01,-0.023 0.939,-0.107 0.51,0.135 0.168,-0.197 0.933,-0.012 c 1.873,0.026 1.873,0.026 2.562,0.164 0.338,-0.103 1.444,-0.12 1.701,-0.027 l 0.677,-0.251 c 1.275,0.082 1.872,0.118 2.554,0.111 l 1.066,-0.035 0.327,0.21 0.25,-0.21 0.244,0.041 0.994,-0.085 1.152,0.131 0.576,-0.087 0.823,-0.044 0.786,0.044 0.205,0.38 c 0.287,-0.213 0.495,-0.339 0.576,-0.339 l 1.567,0.085 1.151,0.125 c 0.208,-0.125 0.329,-0.164 0.495,-0.164 h 0.166 c 0.043,0.164 0.084,0.207 0.287,0.335 l 0.126,-0.212 0.412,-0.123 0.33,0.373 0.042,-0.334 0.285,-0.085 0.828,0.126 1.48,-0.167 2.064,-0.128 c 1.244,0.547 0.295,2.083 0.163,2.451 l -0.123,-0.165 -0.209,0.043 -1.605,0.369 -0.375,0.129 -0.616,-0.463 -0.283,0.25 c -0.085,0 -0.166,-0.041 -0.166,-0.041 l -0.828,0.083 -0.531,-0.042 -0.25,0.084 c -0.37,-0.293 -1.563,-0.251 -1.69,-0.207 l -0.448,-0.166 -0.573,0.124 -1.694,-0.018 -3.857,-0.091 -1.137,0.233 -2.325,0.139 -2.816,0.025 -0.749,-0.248 -1.189,-0.083 -0.936,0.013 -0.173,-0.289 -0.935,0.304 -1.513,-0.013 0.011,0.022 -0.936,0.109 -0.509,-0.138 -0.169,0.196 -0.94,0.014 c -1.874,-0.024 -1.874,-0.024 -2.553,-0.161 -0.341,0.102 -1.448,0.118 -1.706,0.023 l -1.18,0.07 c -1.276,-0.077 -1.371,0.06 -2.052,0.07 -0.766,0.009 -1.227,-0.316 -2.5,-0.154 l -1.325,-0.021 -1.252,-0.087 v -0.033 l -0.052,0.002 -0.899,-0.409 c -0.354,-0.177 0.073,-0.387 -0.711,-0.624 -2.966,-0.913 -0.71,-0.986 -0.181,-1.166"
   style="fill-rule:nonzero"
   id="path31" />
        </g><g
       transform="matrix(2.7239022,0,0,2.7851606,427.30997,87.864654)"
       id="g37">
            <path
   d="m 158.9,171.579 -2.299,0.124 -1.654,0.169 -0.919,-0.122 -0.323,0.082 -0.049,0.336 -0.365,-0.379 -0.459,0.126 -0.139,0.211 c -0.23,-0.127 -0.276,-0.169 -0.322,-0.337 h -0.183 c -0.184,0 -0.321,0.043 -0.552,0.168 l -1.288,-0.125 -1.745,-0.082 c -0.094,0 -0.323,0.122 -0.644,0.334 l -0.229,-0.381 -0.876,-0.041 -0.92,0.041 -0.642,0.086 -1.287,-0.127 -1.105,0.088 -0.275,-0.047 -0.274,0.212 -0.369,-0.212 h -3.035 l -0.551,0.047 -0.324,-0.171 h -1.148 l -0.781,-0.169 -0.029,0.219 -2.428,0.297 -0.386,-0.282 c -1.423,0.161 -2.085,0.267 -2.94,0.279 -0.76,0.003 -1.428,-0.033 -2.851,-0.113 l -0.757,0.252 c -0.288,-0.096 -1.522,-0.622 -1.899,-0.519 -0.849,-0.152 -0.691,-0.135 -2.855,-0.16 l -1.044,0.014 -0.186,0.195 -0.573,-0.141 -1.044,0.111 0.01,0.023 -1.686,-0.014 -1.04,0.303 -0.193,-0.289 -1.047,0.016 -1.331,-0.081 -0.944,0.351 c -0.38,0.001 -0.762,-0.138 -4.184,-0.193 l -0.478,-0.335 c -0.358,0.095 -0.606,0.155 -0.832,0.195 l -0.513,-0.106 c -0.286,-0.092 -1.523,-0.078 -1.9,0.024 -0.763,-0.14 -0.763,-0.14 -2.855,-0.16 l -1.041,0.014 -0.189,0.194 -0.573,-0.14 -1.043,0.111 0.006,0.023 -1.684,-0.014 -1.039,0.304 -0.195,-0.29 -1.044,0.011 -1.331,-0.077 -0.633,0.23 0.049,-0.099 -1.178,0.072 c -0.258,-0.094 -1.363,-0.079 -1.703,0.022 -0.684,-0.134 -0.684,-0.134 -2.557,-0.158 l -0.937,0.014 -0.168,0.195 -0.512,-0.137 -0.936,0.107 0.009,0.024 -1.511,-0.013 -0.933,0.303 -0.174,-0.289 h -0.049 l -0.002,-0.03 -1.25,-0.092 -1.324,-0.021 c -1.274,0.164 -1.733,-0.163 -2.502,-0.152 -0.682,0.008 -0.775,0.148 -2.053,0.068 l -1.178,0.073 c -0.257,-0.096 -1.366,-0.079 -1.704,0.022 -0.682,-0.137 -0.682,-0.137 -2.557,-0.161 l -0.938,0.012 -0.167,0.197 -0.511,-0.138 -0.935,0.111 0.008,0.021 -1.511,-0.012 -0.935,0.301 -0.171,-0.289 -0.936,0.015 -1.195,-0.083 -0.848,0.352 c -0.339,0.004 -0.682,-0.136 -3.747,-0.194 l -0.793,-0.162 c -0.679,0.205 -0.569,0.085 -1.08,0.089 l -2.289,0.032 0.026,-0.232 -0.166,0.126 -0.369,-0.084 -2.101,0.126 -0.578,-0.168 c -0.206,0.126 -0.288,0.168 -0.454,0.168 l -0.616,-0.042 -2.227,0.083 -1.071,-0.083 -5.315,-0.043 -0.575,-0.041 -0.249,0.167 -0.371,-0.167 c -0.124,0.041 -1.441,0.338 -1.814,0.041 l -0.246,0.085 -0.536,-0.042 -0.824,0.083 c 0,0 -0.083,-0.041 -0.165,-0.041 l -0.29,0.253 -0.618,-0.465 -0.368,0.127 -1.609,-0.169 -0.205,0.042 -0.123,-0.168 c -0.132,0.369 -1.082,1.91 0.164,2.454 l 2.059,0.413 1.486,-0.17 0.822,0.126 0.289,-0.084 0.04,-0.336 0.33,0.377 0.413,-0.124 0.123,-0.211 c 0.207,0.127 0.247,0.167 0.288,0.335 h 0.165 c 0.166,0 0.289,-0.041 0.495,-0.168 l 1.154,0.127 1.566,0.084 c 0.082,0 0.288,-0.126 0.576,-0.338 l 0.207,0.382 0.782,0.041 0.824,-0.041 0.578,-0.087 1.154,0.128 0.989,-0.085 0.247,0.044 0.248,-0.211 0.329,0.211 2.719,-0.542 0.494,-0.04 0.289,0.169 h 1.029 l 0.701,0.168 0.026,-0.219 2.177,0.238 0.345,0.287 c 1.274,-0.16 1.869,-0.263 2.636,-0.277 0.681,-0.01 1.277,0.03 2.554,0.112 l 0.678,-0.252 c 0.256,0.093 1.365,0.079 1.701,-0.024 0.685,0.139 0.685,0.139 2.559,0.161 l 0.936,-0.014 0.168,-0.197 0.511,0.14 0.936,-0.107 -0.007,-0.025 1.51,0.016 0.931,-0.303 0.176,0.287 0.937,-0.015 1.191,0.083 0.848,-0.35 c 0.34,-0.005 0.682,0.136 3.748,0.193 l 0.43,0.332 c 0.32,-0.095 0.542,-0.154 0.746,-0.194 l 0.459,0.107 c 0.257,0.093 1.365,0.078 1.705,-0.024 0.681,0.137 0.681,0.137 2.554,0.16 l 0.938,-0.012 0.168,-0.197 0.511,0.14 0.935,-0.108 -0.006,-0.026 1.509,0.014 0.934,-0.305 0.173,0.291 0.936,-0.014 1.193,0.082 0.385,-0.16 -0.014,0.025 1.317,-0.069 c 0.287,0.089 1.523,0.078 1.9,-0.025 0.762,0.137 0.762,0.137 2.852,0.16 l 1.045,-0.014 0.188,-0.195 0.572,0.141 1.043,-0.111 -0.008,-0.023 1.684,0.013 1.043,-0.303 0.193,-0.253 h 0.054 l 0.003,0.03 1.396,0.632 1.475,0.022 c 1.422,-0.164 1.94,0.162 2.793,0.154 0.759,-0.011 0.865,-0.15 2.29,-0.073 l 1.316,-0.07 c 0.288,0.094 1.522,0.08 1.9,-0.022 0.762,0.136 0.762,0.136 2.853,0.161 l 1.047,-0.014 0.186,-0.195 0.572,0.138 1.043,-0.112 -0.01,-0.021 1.688,0.554 1.041,-0.301 0.193,0.286 1.044,-0.011 1.333,0.081 0.944,-0.35 c 0.379,-0.006 0.76,0.136 4.182,0.19 l 0.886,0.163 c 0.757,-0.199 0.635,-0.084 1.205,-0.089 l 2.554,-0.033 -0.031,0.237 0.186,-0.13 0.413,0.086 2.344,-0.127 0.645,0.171 c 0.229,-0.13 0.323,-0.171 0.505,-0.171 l 0.692,0.041 2.478,-0.082 1.196,0.082 5.932,0.044 0.644,0.042 0.276,-0.168 0.414,0.168 c 0.138,-0.042 1.609,-0.338 2.022,-0.042 l 0.277,-0.085 0.599,0.041 0.917,-0.082 c 0,0 0.094,0.041 0.185,0.041 l 0.321,-0.252 0.691,0.462 0.413,-0.125 1.794,0.17 0.547,-0.597 -0.315,0.188 c 0.15,-0.372 1.343,-1.922 -0.049,-2.459 z"
   style="fill-rule:nonzero"
   id="path35" />
        </g><g
       transform="matrix(2.7239022,0,0,2.7851606,378.93868,87.864654)"
       id="g41">
            <path
   d="m 378.886,171.766 c 0.093,-0.012 0.228,-0.024 0.386,-0.033 0.888,-0.056 2.506,-0.051 2.935,0.014 l 0.897,0.09 c 0.391,-0.036 0.828,-0.084 1.45,-0.166 l 0.834,0.285 c 5.978,0.046 6.638,0.164 7.309,0.162 l 1.646,-0.298 2.323,0.07 1.827,-0.012 0.342,0.244 1.813,-0.258 2.945,0.014 -0.013,-0.019 1.822,-0.093 0.997,0.116 0.325,-0.168 1.824,-0.009 c 3.65,0.022 3.65,0.022 4.988,0.139 0.658,-0.088 2.815,-0.102 3.317,-0.022 l 1.322,-0.213 c 2.482,0.068 3.646,0.099 4.974,0.094 l 2.077,-0.031 0.637,0.179 0.486,-0.179 0.477,0.035 1.935,-0.072 2.238,0.111 1.128,-0.074 1.604,-0.037 1.532,0.037 0.402,0.322 c 0.556,-0.179 0.965,-0.287 1.121,-0.287 l 3.05,0.072 2.247,0.107 c 0.404,-0.107 0.639,-0.14 0.963,-0.14 h 0.325 c 0.079,0.14 0.16,0.176 0.561,0.284 l 0.243,-0.179 0.801,-0.105 0.642,0.318 0.082,-0.285 0.555,-0.072 1.611,0.108 2.888,-0.143 4.018,-0.108 c 2.428,0.464 0.581,1.767 0.322,2.082 l -0.24,-0.141 -0.408,0.037 -3.128,0.314 -0.727,0.109 -1.202,-0.394 -0.553,0.212 c -0.163,0 -0.323,-0.035 -0.323,-0.035 l -1.61,0.071 -1.043,-0.036 -0.484,0.073 c -0.717,-0.25 -3.045,-0.215 -3.289,-0.177 l -0.872,-0.142 -1.12,0.108 -3.305,-0.018 -7.512,-0.077 -2.214,0.198 -4.531,0.118 -5.487,0.021 -1.46,-0.21 -2.314,-0.069 -1.828,0.009 -0.332,-0.244 -1.824,0.258 -2.95,-0.011 0.024,0.019 -1.828,0.091 -0.997,-0.116 -0.323,0.166 -1.827,0.012 c -3.652,-0.02 -3.652,-0.02 -4.982,-0.137 -0.661,0.086 -2.819,0.101 -3.321,0.02 l -2.301,0.059 c -2.484,-0.066 -2.67,0.051 -3.998,0.06 -1.496,0.007 -2.388,-0.269 -4.871,-0.131 l -2.585,-0.017 -2.433,-0.075 -0.002,-0.028 -0.104,0.002 -3.058,0.01 c -0.695,-0.152 -2.213,0.114 -2.319,-1.041 -0.141,-1.557 0.854,-0.684 1.892,-0.837"
   style="fill-rule:nonzero"
   id="path39" />
        </g><g
       transform="matrix(0.65608345,0,0,0.65608345,327.64075,118.05217)"
       id="g45">
            <path
   d="m 943.415,132.863 c 1.43,-3.366 9.534,-10.294 10.226,-11.053 0.58,-0.636 1.178,-0.146 3.528,-1.355 2.36,-1.209 2.946,-1.502 5.287,-4.056 2.36,-2.554 4.267,-2.866 4.858,-3.456 0.591,-0.599 4.705,-2.861 6.03,-3.616 1.325,-0.746 3.38,-2.852 4.701,-3.607 1.329,-0.746 2.502,-1.946 5,-2.555 2.498,-0.599 15.294,-6.916 16.757,-7.063 1.468,-0.146 4.708,-1.501 4.708,-1.501 0,0 2.06,-0.746 2.94,-1.506 0.89,-0.756 8.09,-2.857 9.85,-3.003 1.77,-0.151 8.67,-2.115 10,-2.261 1.33,-0.147 10.88,-4.056 12.49,-3.608 1.62,0.454 1.92,-0.901 7.5,-1.954 5.59,-1.048 2.06,0 7.5,-2.101 5.44,-2.111 9.85,-1.95 12.94,-2.248 3.09,-0.306 8.23,-0.599 10.15,-1.808 1.9,-1.208 8.81,-1.808 11.16,-2.106 2.35,-0.306 11.03,-1.355 13.67,-1.657 2.66,-0.297 8.53,0.302 10,0.147 1.48,-0.147 2.06,-1.799 3.53,-1.946 1.48,-0.155 4.27,0.746 5.44,0.893 1.18,0.16 7.35,-0.439 10,-0.746 2.64,-0.302 7.65,0.307 10.44,0 2.79,-0.302 10.59,-0.449 13.08,-0.147 2.51,0.303 3.97,0.746 5.15,0.746 1.18,0 8.09,0.609 9.85,1.2 1.76,0.609 2.2,0.906 5.73,0.755 3.53,-0.146 9.56,1.053 11.47,0.907 1.91,-0.152 1.76,0.448 2.35,1.501 0.59,1.053 3.38,1.053 4.71,1.053 1.32,0 8.67,1.652 10.73,1.048 2.06,-0.6 9.41,0.906 12.79,1.346 3.38,0.462 8.67,2.261 10,3.767 1.32,1.502 1.61,1.502 4.56,2.257 2.94,0.746 3.52,0.302 5,0.302 1.46,0 10.42,1.955 12.49,2.252 2.06,0.293 6.47,1.657 8.38,2.554 1.91,0.902 14.85,6.464 15.44,7.063 0.58,0.6 1.76,0 3.68,0 1.9,0 1.46,1.209 2.35,1.809 0.88,0.609 2.64,-0.307 5,0.156 2.34,0.453 2.19,1.652 2.5,2.252 0.29,0.599 0.14,1.35 1.91,1.048 1.77,-0.302 8.09,1.208 8.96,1.652 0.88,0.453 0.45,1.058 0.88,2.857 0.44,1.798 2.06,0.453 2.36,-0.449 0.3,-0.906 2.06,-0.599 2.94,0 0.87,0.6 4.41,2.403 5.44,2.857 1.03,0.443 5,4.126 7.79,5.476 2.79,1.355 11.18,5.416 14.71,7.819 3.52,2.398 9.11,6.463 9.85,7.214 0.73,0.746 9.55,6.02 11.9,7.219 2.36,1.199 13.24,10.972 13.82,11.426 0.59,0.448 7.05,4.438 8.23,5.495 1.18,1.053 6.76,7.809 7.35,9.008 0.6,1.209 5.29,5.869 5.44,7.073 0.15,1.199 -0.15,2.106 0.3,3.149 0.44,1.058 3.53,6.176 5.73,8.428 2.2,2.247 1.76,4.801 2.06,6.01 0.3,1.209 2.5,3.154 3.38,4.509 0.88,1.355 3.68,9.617 4.12,10.524 0.44,0.901 2.34,8.12 2.64,8.72 0.3,0.6 3.09,8.725 3.53,9.471 0.44,0.746 2.65,7.814 2.94,9.174 0.3,1.35 0.59,9.622 0.59,10.66 0,1.063 0.3,9.778 0.73,10.973 0.45,1.208 -0.28,3.47 -0.43,5.118 -0.15,1.657 -0.15,4.216 0.15,6.015 0.28,1.808 -1.04,6.463 -1.33,9.324 -0.3,2.857 -1.61,4.349 -1.91,5.109 -0.3,0.746 0.43,3.309 0,4.811 -0.44,1.492 -1.32,1.199 -2.07,3.153 -0.73,1.955 0.45,1.653 -0.73,4.217 -1.17,2.554 -2.35,2.993 -2.8,4.197 -0.43,1.213 -0.87,2.71 -2.49,5.415 -1.62,2.706 -1.91,4.509 -2.49,6.615 -0.59,2.101 -0.89,2.866 -1.77,3.456 -0.89,0.599 -1.62,3.461 -2.94,4.811 -1.33,1.36 -3.09,4.06 -3.38,5.108 -0.3,1.058 -0.74,3.305 -1.32,4.212 -0.59,0.902 -3.39,3.909 -4.42,4.962 -1.03,1.048 -1.47,1.955 -1.47,1.955 0,0 -1.18,1.803 -1.91,2.256 -0.74,0.444 -4.12,4.656 -5,5.406 -0.88,0.76 -2.5,2.857 -3.37,4.212 -0.89,1.355 -2.22,3.46 -3.69,3.763 -1.47,0.297 -3.81,3.3 -4.56,4.206 -0.73,0.902 -4.84,4.202 -5.58,4.802 -0.74,0.609 -7.2,6.024 -8.24,6.926 -1.02,0.897 -2.34,0.897 -3.09,1.799 -0.73,0.902 -2.05,3.007 -2.64,4.056 -0.58,1.052 -7.05,4.216 -8.09,5.269 -1.02,1.043 -7.05,4.811 -7.79,5.108 -0.73,0.302 -4.99,2.71 -6.46,3.758 -1.47,1.053 -4.86,3.754 -5.74,4.514 -0.88,0.746 -2.35,1.345 -3.96,2.257 -1.63,0.897 -3.39,1.652 -6.03,2.7 -2.65,1.053 -6.33,3.149 -7.36,3.909 -1.03,0.751 -5.58,2.998 -6.76,3.598 -1.17,0.609 -4.7,1.662 -6.32,2.262 -1.61,0.609 -3.68,1.657 -5.3,2.256 -1.61,0.6 -2.64,1.2 -3.67,1.507 -1.03,0.302 -0.59,1.194 -1.32,1.647 -0.74,0.454 -2.21,0.307 -3.09,0.307 -0.88,0 -1.9,0.449 -2.65,0.746 -0.73,0.302 -5.43,2.247 -6.32,2.71 -0.88,0.453 -7.94,3.154 -9.7,4.051 -1.76,0.911 -7.35,1.813 -8.08,2.111 -0.74,0.302 -3.68,0.302 -4.86,1.199 -1.17,0.902 -5,2.554 -9.26,3.012 -4.27,0.453 -2.5,0.453 -5.44,0.6 -2.94,0.151 -2.5,1.052 -3.52,1.652 -1.04,0.6 -8.98,-0.146 -10.45,0 -1.46,0.146 -5.58,2.408 -5.58,2.408 0,0 -7.5,0.448 -7.94,0.755 -0.44,0.293 -7.94,1.648 -9.41,1.945 -1.48,0.303 -7.5,0.902 -9.85,0.756 -2.35,-0.156 -7.21,-0.156 -7.79,0.297 -0.59,0.449 -8.53,1.355 -10,1.658 -1.47,0.297 -5.73,0 -6.62,-0.303 -0.88,-0.307 -4.7,0.303 -6.76,0 -2.06,-0.307 -5.29,0.303 -8.38,0.303 -3.09,0 -7.35,0.443 -10.73,0.906 -3.38,0.449 -9.7,-0.906 -13.82,-0.906 -4.11,0 -11.17,0 -13.82,-0.756 -2.65,-0.746 -7.64,-0.746 -9.26,-0.746 -1.62,0 -13.97,-0.307 -13.97,-0.307 0,0 -3.82,-1.048 -6.03,-1.048 -2.21,0 -4.26,0.302 -8.52,-0.453 -4.27,-0.746 -2.5,-0.746 -3.68,-1.199 -1.17,-0.454 -2.21,-1.355 -3.53,-1.809 -1.32,-0.448 -3.23,-0.746 -5.44,-1.199 -2.2,-0.448 -3.38,-0.302 -5.43,-0.755 -2.06,-0.453 -3.24,-0.746 -5.74,-1.502 -2.5,-0.755 -1.32,-0.146 -3.68,-0.599 -2.35,-0.453 -6.75,-1.355 -9.11,-1.955 -2.35,-0.599 -2.06,-0.755 -6.91,-1.808 -4.85,-1.053 -12.79,-3.754 -14.56,-4.806 -0.72,-0.433 -1.45,-0.611 -2.16,-0.691 -4.16,0.074 -7.506,-0.75 -8.691,-3.084 -9.296,-18.303 -20.434,-24.094 -20.393,-42.399 0.017,-7.871 0.42,-14.874 1.248,-21.086 -3.315,0.713 -6.584,1.476 -9.524,2.549 -11.968,4.367 -27.98,11.645 -41.243,15.527 -12.511,3.662 -25.554,6.631 -38.331,7.763 -12.732,1.128 -29.517,0.566 -38.332,-0.97 -5.494,-0.958 -17.386,-6.47 -14.556,-8.249 2.83,-1.779 21.238,-0.173 31.539,-2.426 12.939,-2.83 32.266,-8.329 46.094,-14.556 13.179,-5.934 23.536,-17.246 36.876,-22.805 14.345,-5.977 43.325,-16.717 54.033,-16.34 1.3,-0.461 2.66,-0.875 4.07,-1.243 3.58,-0.932 20.43,-2.71 37.45,-3.95 48.57,-3.542 56.17,-5.04 62.99,-12.428 5.81,-6.301 6.11,-8.019 2.05,-11.817 -2.51,-2.345 -3.4,-4.163 -3.4,-6.945 0,-4.629 1.34,-6.348 7.83,-10.034 5.98,-3.4 12.1,-9.886 15.56,-16.495 1.96,-3.739 2.5,-6.631 2.53,-13.594 0.08,-14.231 -3.87,-19.32 -22.14,-28.509 -20.91,-10.516 -33.26,-12.185 -39.39,-5.323 -4.19,4.691 -7.63,5.871 -13.37,4.581 -5.28,-1.186 -7.93,-3.91 -9.77,-10.05 -1.57,-5.248 -0.01,-9.751 4.8,-13.792 5.13,-4.316 9.66,-3.715 16.27,2.158 5.81,5.16 6.66,5.414 22.2,6.603 9.7,0.743 26.5,5.249 37.34,10.014 12.55,5.517 13.03,5.343 8.99,-3.252 -5.92,-12.583 -31.48,-30.787 -54.07,-38.498 -16.68,-5.693 -25.19,-6.839 -50.86,-6.845 -25.66,-0.004 -35.949,1.339 -51.296,6.701 -20.698,7.231 -71.893,3.25 -96.883,2.07 -31.735,-1.498 -45.648,2.976 -79.861,-0.696 -29.428,-3.159 -49.97,-9.238 -58.73,-11.44 -13.758,-3.459 -46.783,-21.719 -32.124,-19.112 55.64,9.898 84.229,10.597 162.401,10.92 25.667,0.106 45.989,0.471 65.498,-1.179 z m 86.665,269.206 c 0.83,0.246 1.58,0.481 2.22,0.698 3.52,1.199 8.67,2.554 13.82,4.06 5.14,1.502 16.31,3.154 17.93,3.31 1.62,0.146 2.8,1.799 4.27,2.101 1.47,0.297 1.91,-0.6 4.41,-1.053 2.49,-0.449 9.55,1.506 10.43,1.652 0.88,0.147 1.77,1.053 4.86,0.751 3.09,-0.297 10.87,0.746 12.05,1.204 1.18,0.453 5.14,1.053 6.32,0.907 1.18,-0.161 6.32,0 7.21,0.448 0.88,0.444 4.12,0.897 6.32,0.897 2.21,0 13.09,0.302 15.14,-0.297 2.06,-0.6 10.15,-1.355 11.76,-0.902 1.62,0.448 5.89,0 5.89,0 0,0 6.76,-1.053 8.38,-1.355 1.61,-0.302 13.96,-1.199 16.17,-1.199 2.2,0 8.37,-0.6 11.16,-0.756 2.8,-0.151 13.54,-2.398 14.27,-2.554 0.73,-0.161 11.76,-1.652 17.79,-2.261 6.03,-0.6 18.52,-5.562 20.58,-6.001 2.06,-0.454 4.85,1.194 6.62,-0.454 1.76,-1.652 8.23,-3.309 9.41,-3.309 1.17,0 2.5,0.609 3.97,-1.653 1.47,-2.256 3.23,-2.554 5.43,-3.909 2.21,-1.355 11.18,-4.962 14.71,-6.171 3.52,-1.199 7.05,-1.345 8.23,-1.803 1.18,-0.449 5.14,-2.998 6.77,-3.452 1.61,-0.453 3.52,0.147 6.46,-1.355 2.94,-1.501 1.62,-3.153 2.36,-4.055 0.73,-0.911 3.23,-0.6 4.12,-1.511 0.87,-0.897 2.06,-2.403 3.08,-3.758 1.03,-1.346 2.06,0 5.29,-1.945 3.23,-1.964 3.68,-2.857 4.41,-3.763 0.74,-0.902 1.48,-0.756 2.65,-0.902 1.18,-0.146 10.14,-6.464 10.58,-7.21 0.45,-0.76 3.24,-3.46 4.56,-3.762 1.32,-0.298 7.79,-3.763 8.53,-4.66 0.73,-0.902 4.85,-6.464 6.31,-7.366 1.48,-0.906 2.36,-0.599 3.54,-1.506 1.17,-0.902 9.11,-11.572 11.32,-13.673 2.2,-2.11 10,-12.634 11.47,-13.833 1.47,-1.209 5.43,-8.272 7.49,-12.923 2.06,-4.669 5.15,-12.483 6.76,-18.04 1.62,-5.561 4.71,-19.395 4.42,-24.961 -0.3,-5.562 -1.03,-16.388 -1.91,-20.142 -0.89,-3.753 -2.35,-12.78 -2.35,-16.09 0,-3.3 -2.36,-3.753 -2.95,-4.353 -0.59,-0.6 0.15,-2.554 -1.46,-4.362 -1.62,-1.799 -1.77,-1.658 -1.77,-4.056 0,-2.408 -0.44,-2.252 -1.32,-4.06 -0.9,-1.804 -2.79,-7.064 -5.15,-10.373 -2.35,-3.3 -4.11,-7.219 -6.91,-12.025 -2.79,-4.811 -1.32,-2.857 -4.26,-4.509 -2.94,-1.657 -9.41,-9.325 -11.47,-10.67 -2.06,-1.36 -1.77,-3.013 -3.09,-4.212 -1.32,-1.199 -4.11,-1.955 -4.85,-2.549 -0.73,-0.605 -1.62,-3.612 -2.65,-3.759 -1.02,-0.155 -4.27,-3.909 -6.76,-6.317 -2.5,-2.408 -8.52,-6.317 -8.52,-6.317 0,0 1.76,0.146 -1.92,-0.453 -3.67,-0.6 -7.64,-2.705 -9.84,-3.754 -2.21,-1.057 -9.57,-7.219 -10.44,-7.818 -0.88,-0.6 -7.35,-5.264 -8.54,-6.01 -1.17,-0.756 -1.32,-0.605 -4.26,-0.458 -2.93,0.151 -6.76,0.151 -7.94,-1.95 -1.17,-2.101 -1.9,-1.346 -4.84,-2.101 -2.95,-0.76 -6.33,-3.164 -9.56,-4.061 -3.24,-0.901 -13.67,-6.317 -17.2,-7.672 -3.54,-1.345 -10.15,-2.101 -12.49,-2.7 -2.36,-0.6 -6.33,-1.809 -7.8,-1.809 -1.47,0 -3.38,-1.647 -6.62,-2.847 -3.23,-1.208 -6.03,-1.652 -8.38,-2.11 -2.36,-0.453 -2.06,-1.506 -4.7,-2.408 -2.65,-0.897 -12.35,-1.053 -15.89,-1.945 -3.52,-0.911 -9.4,-1.808 -12.79,-2.408 -3.37,-0.6 -2.05,-3.47 -2.63,-3.616 -0.6,-0.147 -7.21,0.906 -8.97,0.311 -1.77,-0.604 -4.56,-0.311 -8.82,-0.604 -4.27,-0.307 -5.74,0 -9.12,-0.151 -3.39,-0.156 -2.21,-0.458 -6.18,-1.511 -3.97,-1.053 -4.11,0.453 -5.74,0.902 -1.61,0.453 -3.81,0.609 -5.73,-0.147 -1.91,-0.755 -3.37,0.147 -5.87,0.147 -2.51,0 -7.35,1.51 -9.12,1.199 -1.77,-0.293 -2.5,-0.746 -3.67,-0.59 -1.18,0.151 -3.09,0.444 -4.41,0.444 -1.34,0 -4.27,-0.6 -6.32,-0.293 -2.06,0.293 -9.13,1.492 -11.33,1.803 -2.2,0.298 -1.47,-0.604 -2.2,-0.604 -0.74,0 -7.65,0.902 -8.82,1.058 -1.18,0.146 -2.65,-1.058 -5.15,-0.902 -2.5,0.137 -5.73,1.345 -7.35,1.799 -1.61,0.448 -4.27,0.155 -5.88,0.302 -1.62,0.146 -2.21,1.053 -3.82,1.199 -1.62,0.146 -2.5,-0.297 -4.71,0.751 -2.2,1.057 -5.58,2.257 -8.53,2.412 -2.93,0.147 -2.79,-1.355 -5.43,-0.155 -2.65,1.208 -2.95,3.007 -7.21,3.309 -4.26,0.293 -4.7,0.293 -9.12,2.101 -4.41,1.808 -8.08,3.31 -9.7,3.909 -1.61,0.6 -2.35,-0.448 -3.38,-0.146 -1.03,0.297 -4.41,2.101 -5.15,2.252 -0.73,0.147 -2.64,-0.906 -3.37,0.302 -0.74,1.204 -11.62,5.109 -13.531,5.859 -1.912,0.746 -2.207,-0.151 -4.705,-0.297 -2.498,-0.146 -3.671,1.043 -4.558,1.648 -0.882,0.599 -3.236,-0.449 -3.966,0.599 -0.739,1.063 -6.047,4.38 -7.516,5.126 -0.349,0.177 -3.961,4.327 -5.69,5.858 -1.019,0.903 -1.81,2.038 -2.548,3.282 2.287,-0.466 4.589,-0.972 6.915,-1.524 16.309,-3.867 53.159,-2.401 72.019,0.41 23.57,3.511 48.01,12.401 64.96,23.625 22.66,15.014 38.92,35.116 42.55,52.622 1.17,5.632 1.97,6.723 11.32,15.523 19.42,18.285 48.66,38.856 69.96,49.23 6.08,2.961 17.43,7.672 25.21,10.469 36.68,13.18 48.38,20.729 54.34,35.082 3.68,8.827 0.59,11.469 -9.55,8.192 -6.83,-2.205 -18.41,-2.253 -30.2,-0.124 -29.21,5.278 -87.28,-2.965 -118.3,-16.794 -18.86,-8.406 -26.5,-8.808 -37.14,-1.953 -11.57,7.454 -25.6,11.009 -58.52,14.829 -33.82,3.926 -37.67,4.523 -43.66,6.763 -6.86,2.567 -13.87,9.528 -16.14,16.027 -2.24,6.423 -5.459,20.28 -1.63,30.809 9.59,26.433 7.78,21.059 27.27,29.88 z m 271.41,-91.297 c 1.44,-2.333 -3.68,-7.109 -12.35,-11.517 -4.8,-2.442 -17.68,-7.391 -28.63,-10.997 -20.66,-6.805 -35.33,-13.424 -55.58,-25.063 -17.74,-10.203 -38.68,-23.807 -45.96,-29.864 -9.72,-8.092 -10.69,-7.563 -11.8,6.426 -0.58,7.233 -1.47,10.566 -4.23,15.835 -5.77,11.004 -4.77,14.316 6.78,22.543 18.48,13.162 50.74,24.915 86.93,31.667 12.64,2.359 63.51,3.119 64.84,0.97 z m -123.13,-43.238 c -0.73,-0.726 -1.32,-1.856 -1.32,-2.511 0,-0.655 -1.53,-2.861 -3.39,-4.902 -3.88,-4.241 -3.08,-6.251 2.03,-5.128 6.73,1.478 10.71,9.294 6.27,12.314 -1.76,1.198 -2.57,1.249 -3.59,0.227 z M 938.283,216.99 c 14.106,-1.802 32.3,-1.219 41.99,0.726 6.017,1.207 17.945,7.305 17.099,10.636 -0.006,0.021 -0.012,0.043 -0.018,0.064 -0.028,0.091 -0.066,0.179 -0.113,0.265 -0.015,0.026 -0.03,0.052 -0.047,0.079 l -0.026,0.039 c -0.043,0.064 -0.094,0.128 -0.15,0.19 -0.04,0.044 -0.083,0.087 -0.13,0.129 l -0.018,0.016 c -0.106,0.095 -0.23,0.188 -0.372,0.279 -0.034,0.022 -0.07,0.044 -0.106,0.066 -0.076,0.046 -0.155,0.09 -0.239,0.135 -0.062,0.033 -0.127,0.065 -0.193,0.098 l -0.068,0.032 c -0.091,0.043 -0.186,0.086 -0.286,0.128 l -0.073,0.03 c -0.025,0.011 -0.05,0.021 -0.076,0.032 l -0.121,0.048 c -0.104,0.04 -0.212,0.08 -0.322,0.119 -0.129,0.047 -0.263,0.092 -0.402,0.138 -0.118,0.038 -0.24,0.076 -0.365,0.114 -5.546,1.672 -17.547,2.598 -27.446,4.229 l -0.004,0.001 c -2.513,0.414 -4.891,0.873 -6.994,1.402 -3.393,0.854 -7.18,1.969 -11.256,3.246 -0.513,0.161 -1.031,0.324 -1.552,0.49 -1.38,0.437 -2.79,0.891 -4.229,1.358 l -1.013,0.33 -0.942,0.308 c -2.507,0.82 -5.089,1.673 -7.725,2.539 -1.003,0.33 -2.014,0.662 -3.034,0.995 l -1.117,0.365 -1.073,0.349 c -5.554,1.805 -11.29,3.619 -17.045,5.282 l -0.457,0.131 c -0.209,0.06 -0.419,0.12 -0.628,0.18 l -0.61,0.174 c -0.841,0.238 -1.683,0.473 -2.524,0.704 -0.63,0.173 -1.259,0.343 -1.887,0.511 l -0.627,0.167 c -0.209,0.055 -0.418,0.109 -0.626,0.164 l -0.626,0.164 c -0.737,0.19 -1.472,0.378 -2.205,0.56 -0.922,0.23 -1.842,0.454 -2.759,0.671 -0.386,0.091 -0.772,0.181 -1.157,0.269 -0.47,0.108 -0.941,0.215 -1.41,0.319 -3.266,0.726 -6.487,1.353 -9.632,1.849 -27.754,4.377 -61.573,6.403 -92.39,5.138 -32.457,-1.332 -76.624,-8.373 -102.349,-13.131 -17.753,-3.283 -40.94,-10.848 -52.005,-15.415 -5.722,-2.363 -9.589,-7.993 -14.384,-11.99 42.784,6.28 86.121,17.128 128.351,18.841 41.737,1.693 94.327,-4.663 125.032,-8.564 1.01,-0.128 2.024,-0.275 3.042,-0.439 l 0.28,-0.045 0.477,-0.079 c 0.159,-0.027 0.318,-0.054 0.477,-0.081 l 0.478,-0.084 0.234,-0.042 c 0.652,-0.117 1.305,-0.24 1.959,-0.369 0.235,-0.046 0.469,-0.093 0.705,-0.141 9.491,-1.93 19.192,-5.032 28.432,-7.834 l 0.337,-0.102 0.32,-0.097 c 1.437,-0.434 2.862,-0.86 4.272,-1.273 0.252,-0.073 0.503,-0.146 0.754,-0.219 3.175,-0.92 6.275,-1.765 9.271,-2.47 l 0.259,-0.061 0.43,-0.1 c 2.575,-0.591 5.071,-1.074 7.47,-1.408 0.333,-0.047 0.669,-0.092 1.009,-0.136 z"
   id="path43" />
        </g><g
       transform="matrix(1.2103843,0,0,1.701743,355.30033,-249.1477)"
       id="g49">
            <text
   x="80.766998"
   y="486.69299"
   style="font-size:100px;font-family:PMingLiU-ExtB, serif"
   id="text47">F</text>
        </g><g
       transform="matrix(1.2103843,0,0,1.6895889,791.32693,-241.41311)"
       id="g53">
            <text
   x="80.766998"
   y="486.69299"
   style="font-size:100px;font-family:PMingLiU-ExtB, serif"
   id="text51">D</text>
        </g></g></g><g
   inkscape:groupmode="layer"
   id="layer2"
   inkscape:label="Cut"
   style="display:inline"><g
     id="g34"
     transform="matrix(3.77953,0,0,3.77953,598.65609,-291.3159)"
     style="clip-rule:evenodd;fill-rule:evenodd;stroke-linecap:round;stroke-linejoin:round;stroke-miterlimit:1.5">
        
        
        
        
        <ellipse
   cx="25.471741"
   cy="180.19847"
   rx="183.73474"
   ry="102.98987"
   style="fill:none;stroke:#000000;stroke-width:0.262641px"
   id="ellipse18" />
    </g></g></svg>
